<mxfile host="app.diagrams.net" modified="2022-01-17T12:05:32.807Z" agent="5.0 (Windows NT 10.0; Win64; x64) AppleWebKit/537.36 (KHTML, like Gecko) Chrome/97.0.4692.71 Safari/537.36" etag="X30lS-ln-lidJ9Zog0J8" version="16.2.7" type="github">
  <diagram id="4kDq9g3Jz026tGsgzJZz" name="Page-1">
    <mxGraphModel dx="1422" dy="882" grid="1" gridSize="10" guides="1" tooltips="1" connect="1" arrows="1" fold="1" page="1" pageScale="1" pageWidth="850" pageHeight="1100" math="0" shadow="0">
      <root>
        <mxCell id="0" />
        <mxCell id="1" parent="0" />
        <mxCell id="v7rALU2g5YLBwQkCTPih-1" value="node(Thread)" style="swimlane;fontStyle=3;align=center;verticalAlign=top;childLayout=stackLayout;horizontal=1;startSize=26;horizontalStack=0;resizeParent=1;resizeLast=0;collapsible=1;marginBottom=0;rounded=0;shadow=0;strokeWidth=1;" parent="1" vertex="1">
          <mxGeometry x="270" y="280" width="320" height="488" as="geometry">
            <mxRectangle x="230" y="140" width="160" height="26" as="alternateBounds" />
          </mxGeometry>
        </mxCell>
        <mxCell id="v7rALU2g5YLBwQkCTPih-2" value="+ is_syncing: bool" style="text;align=left;verticalAlign=top;spacingLeft=4;spacingRight=4;overflow=hidden;rotatable=0;points=[[0,0.5],[1,0.5]];portConstraint=eastwest;" parent="v7rALU2g5YLBwQkCTPih-1" vertex="1">
          <mxGeometry y="26" width="320" height="26" as="geometry" />
        </mxCell>
        <mxCell id="v7rALU2g5YLBwQkCTPih-3" value="+ neighbors: list&lt;int&gt;" style="text;align=left;verticalAlign=top;spacingLeft=4;spacingRight=4;overflow=hidden;rotatable=0;points=[[0,0.5],[1,0.5]];portConstraint=eastwest;rounded=0;shadow=0;html=0;" parent="v7rALU2g5YLBwQkCTPih-1" vertex="1">
          <mxGeometry y="52" width="320" height="26" as="geometry" />
        </mxCell>
        <mxCell id="v7rALU2g5YLBwQkCTPih-4" value="+ db: database" style="text;align=left;verticalAlign=top;spacingLeft=4;spacingRight=4;overflow=hidden;rotatable=0;points=[[0,0.5],[1,0.5]];portConstraint=eastwest;rounded=0;shadow=0;html=0;" parent="v7rALU2g5YLBwQkCTPih-1" vertex="1">
          <mxGeometry y="78" width="320" height="26" as="geometry" />
        </mxCell>
        <mxCell id="v7rALU2g5YLBwQkCTPih-5" value="+ log_state: list&lt;tuple&gt;" style="text;align=left;verticalAlign=top;spacingLeft=4;spacingRight=4;overflow=hidden;rotatable=0;points=[[0,0.5],[1,0.5]];portConstraint=eastwest;rounded=0;shadow=0;html=0;" parent="v7rALU2g5YLBwQkCTPih-1" vertex="1">
          <mxGeometry y="104" width="320" height="26" as="geometry" />
        </mxCell>
        <mxCell id="40_08IFH8CefeGhNC2VH-19" value="+ id: int" style="text;align=left;verticalAlign=top;spacingLeft=4;spacingRight=4;overflow=hidden;rotatable=0;points=[[0,0.5],[1,0.5]];portConstraint=eastwest;rounded=0;shadow=0;html=0;" vertex="1" parent="v7rALU2g5YLBwQkCTPih-1">
          <mxGeometry y="130" width="320" height="26" as="geometry" />
        </mxCell>
        <mxCell id="40_08IFH8CefeGhNC2VH-20" value="+ buffer: string" style="text;align=left;verticalAlign=top;spacingLeft=4;spacingRight=4;overflow=hidden;rotatable=0;points=[[0,0.5],[1,0.5]];portConstraint=eastwest;rounded=0;shadow=0;html=0;" vertex="1" parent="v7rALU2g5YLBwQkCTPih-1">
          <mxGeometry y="156" width="320" height="26" as="geometry" />
        </mxCell>
        <mxCell id="v7rALU2g5YLBwQkCTPih-7" value="" style="line;html=1;strokeWidth=1;align=left;verticalAlign=middle;spacingTop=-1;spacingLeft=3;spacingRight=3;rotatable=0;labelPosition=right;points=[];portConstraint=eastwest;" parent="v7rALU2g5YLBwQkCTPih-1" vertex="1">
          <mxGeometry y="182" width="320" height="20" as="geometry" />
        </mxCell>
        <mxCell id="40_08IFH8CefeGhNC2VH-27" value="+ publish_log_to_neighbors(int, list&lt;tuple&gt;): void" style="text;align=left;verticalAlign=top;spacingLeft=4;spacingRight=4;overflow=hidden;rotatable=0;points=[[0,0.5],[1,0.5]];portConstraint=eastwest;rounded=0;shadow=0;html=0;" vertex="1" parent="v7rALU2g5YLBwQkCTPih-1">
          <mxGeometry y="202" width="320" height="26" as="geometry" />
        </mxCell>
        <mxCell id="40_08IFH8CefeGhNC2VH-26" value="+ send_log_diffs(int, int, list&lt;tuple&gt;): void" style="text;align=left;verticalAlign=top;spacingLeft=4;spacingRight=4;overflow=hidden;rotatable=0;points=[[0,0.5],[1,0.5]];portConstraint=eastwest;rounded=0;shadow=0;html=0;" vertex="1" parent="v7rALU2g5YLBwQkCTPih-1">
          <mxGeometry y="228" width="320" height="26" as="geometry" />
        </mxCell>
        <mxCell id="40_08IFH8CefeGhNC2VH-25" value="+ send_data_request(int, int, list&lt;tuple&gt;): void" style="text;align=left;verticalAlign=top;spacingLeft=4;spacingRight=4;overflow=hidden;rotatable=0;points=[[0,0.5],[1,0.5]];portConstraint=eastwest;rounded=0;shadow=0;html=0;" vertex="1" parent="v7rALU2g5YLBwQkCTPih-1">
          <mxGeometry y="254" width="320" height="26" as="geometry" />
        </mxCell>
        <mxCell id="40_08IFH8CefeGhNC2VH-24" value="+ send_data_reply(int, int, list): void" style="text;align=left;verticalAlign=top;spacingLeft=4;spacingRight=4;overflow=hidden;rotatable=0;points=[[0,0.5],[1,0.5]];portConstraint=eastwest;rounded=0;shadow=0;html=0;" vertex="1" parent="v7rALU2g5YLBwQkCTPih-1">
          <mxGeometry y="280" width="320" height="26" as="geometry" />
        </mxCell>
        <mxCell id="40_08IFH8CefeGhNC2VH-23" value="+ publish_data_to_neighbors(int, list&lt;tuple&gt;, list): void" style="text;align=left;verticalAlign=top;spacingLeft=4;spacingRight=4;overflow=hidden;rotatable=0;points=[[0,0.5],[1,0.5]];portConstraint=eastwest;rounded=0;shadow=0;html=0;" vertex="1" parent="v7rALU2g5YLBwQkCTPih-1">
          <mxGeometry y="306" width="320" height="26" as="geometry" />
        </mxCell>
        <mxCell id="40_08IFH8CefeGhNC2VH-22" value="+ send_sync_complete(int, int): void" style="text;align=left;verticalAlign=top;spacingLeft=4;spacingRight=4;overflow=hidden;rotatable=0;points=[[0,0.5],[1,0.5]];portConstraint=eastwest;rounded=0;shadow=0;html=0;" vertex="1" parent="v7rALU2g5YLBwQkCTPih-1">
          <mxGeometry y="332" width="320" height="26" as="geometry" />
        </mxCell>
        <mxCell id="40_08IFH8CefeGhNC2VH-21" value="+ publish_synchronized_nodes(int, list&lt;int&gt;): void" style="text;align=left;verticalAlign=top;spacingLeft=4;spacingRight=4;overflow=hidden;rotatable=0;points=[[0,0.5],[1,0.5]];portConstraint=eastwest;rounded=0;shadow=0;html=0;" vertex="1" parent="v7rALU2g5YLBwQkCTPih-1">
          <mxGeometry y="358" width="320" height="26" as="geometry" />
        </mxCell>
        <mxCell id="40_08IFH8CefeGhNC2VH-32" value="+ recv(): string" style="text;align=left;verticalAlign=top;spacingLeft=4;spacingRight=4;overflow=hidden;rotatable=0;points=[[0,0.5],[1,0.5]];portConstraint=eastwest;rounded=0;shadow=0;html=0;" vertex="1" parent="v7rALU2g5YLBwQkCTPih-1">
          <mxGeometry y="384" width="320" height="26" as="geometry" />
        </mxCell>
        <mxCell id="40_08IFH8CefeGhNC2VH-33" value="+ run(): string" style="text;align=left;verticalAlign=top;spacingLeft=4;spacingRight=4;overflow=hidden;rotatable=0;points=[[0,0.5],[1,0.5]];portConstraint=eastwest;rounded=0;shadow=0;html=0;" vertex="1" parent="v7rALU2g5YLBwQkCTPih-1">
          <mxGeometry y="410" width="320" height="26" as="geometry" />
        </mxCell>
        <mxCell id="40_08IFH8CefeGhNC2VH-34" value="+ remove_neighbor(int): void" style="text;align=left;verticalAlign=top;spacingLeft=4;spacingRight=4;overflow=hidden;rotatable=0;points=[[0,0.5],[1,0.5]];portConstraint=eastwest;rounded=0;shadow=0;html=0;" vertex="1" parent="v7rALU2g5YLBwQkCTPih-1">
          <mxGeometry y="436" width="320" height="26" as="geometry" />
        </mxCell>
        <mxCell id="40_08IFH8CefeGhNC2VH-35" value="+ add_neighbor(int): void" style="text;align=left;verticalAlign=top;spacingLeft=4;spacingRight=4;overflow=hidden;rotatable=0;points=[[0,0.5],[1,0.5]];portConstraint=eastwest;rounded=0;shadow=0;html=0;" vertex="1" parent="v7rALU2g5YLBwQkCTPih-1">
          <mxGeometry y="462" width="320" height="26" as="geometry" />
        </mxCell>
        <mxCell id="v7rALU2g5YLBwQkCTPih-15" value="node_manager" style="swimlane;fontStyle=1;align=center;verticalAlign=top;childLayout=stackLayout;horizontal=1;startSize=26;horizontalStack=0;resizeParent=1;resizeLast=0;collapsible=1;marginBottom=0;rounded=0;shadow=0;strokeWidth=1;" parent="1" vertex="1">
          <mxGeometry x="610" y="80" width="160" height="216" as="geometry">
            <mxRectangle x="550" y="140" width="160" height="26" as="alternateBounds" />
          </mxGeometry>
        </mxCell>
        <mxCell id="v7rALU2g5YLBwQkCTPih-16" value="+ nodes: list&lt;node&gt;" style="text;align=left;verticalAlign=top;spacingLeft=4;spacingRight=4;overflow=hidden;rotatable=0;points=[[0,0.5],[1,0.5]];portConstraint=eastwest;" parent="v7rALU2g5YLBwQkCTPih-15" vertex="1">
          <mxGeometry y="26" width="160" height="26" as="geometry" />
        </mxCell>
        <mxCell id="v7rALU2g5YLBwQkCTPih-17" value="" style="line;html=1;strokeWidth=1;align=left;verticalAlign=middle;spacingTop=-1;spacingLeft=3;spacingRight=3;rotatable=0;labelPosition=right;points=[];portConstraint=eastwest;" parent="v7rALU2g5YLBwQkCTPih-15" vertex="1">
          <mxGeometry y="52" width="160" height="8" as="geometry" />
        </mxCell>
        <mxCell id="v7rALU2g5YLBwQkCTPih-18" value="+ add_node(list) : void" style="text;align=left;verticalAlign=top;spacingLeft=4;spacingRight=4;overflow=hidden;rotatable=0;points=[[0,0.5],[1,0.5]];portConstraint=eastwest;" parent="v7rALU2g5YLBwQkCTPih-15" vertex="1">
          <mxGeometry y="60" width="160" height="26" as="geometry" />
        </mxCell>
        <mxCell id="v7rALU2g5YLBwQkCTPih-19" value="+ remove_node(int) : void" style="text;align=left;verticalAlign=top;spacingLeft=4;spacingRight=4;overflow=hidden;rotatable=0;points=[[0,0.5],[1,0.5]];portConstraint=eastwest;" parent="v7rALU2g5YLBwQkCTPih-15" vertex="1">
          <mxGeometry y="86" width="160" height="26" as="geometry" />
        </mxCell>
        <mxCell id="40_08IFH8CefeGhNC2VH-28" value="+ send(int) : void" style="text;align=left;verticalAlign=top;spacingLeft=4;spacingRight=4;overflow=hidden;rotatable=0;points=[[0,0.5],[1,0.5]];portConstraint=eastwest;" vertex="1" parent="v7rALU2g5YLBwQkCTPih-15">
          <mxGeometry y="112" width="160" height="26" as="geometry" />
        </mxCell>
        <mxCell id="40_08IFH8CefeGhNC2VH-30" value="+ multy_send(list) : void" style="text;align=left;verticalAlign=top;spacingLeft=4;spacingRight=4;overflow=hidden;rotatable=0;points=[[0,0.5],[1,0.5]];portConstraint=eastwest;" vertex="1" parent="v7rALU2g5YLBwQkCTPih-15">
          <mxGeometry y="138" width="160" height="26" as="geometry" />
        </mxCell>
        <mxCell id="v7rALU2g5YLBwQkCTPih-20" value="database" style="swimlane;fontStyle=1;align=center;verticalAlign=top;childLayout=stackLayout;horizontal=1;startSize=26;horizontalStack=0;resizeParent=1;resizeParentMax=0;resizeLast=0;collapsible=1;marginBottom=0;" parent="1" vertex="1">
          <mxGeometry x="50" y="526" width="180" height="138" as="geometry" />
        </mxCell>
        <mxCell id="v7rALU2g5YLBwQkCTPih-21" value="+ data: dict&lt;int, list&gt;" style="text;strokeColor=none;fillColor=none;align=left;verticalAlign=top;spacingLeft=4;spacingRight=4;overflow=hidden;rotatable=0;points=[[0,0.5],[1,0.5]];portConstraint=eastwest;" parent="v7rALU2g5YLBwQkCTPih-20" vertex="1">
          <mxGeometry y="26" width="180" height="26" as="geometry" />
        </mxCell>
        <mxCell id="v7rALU2g5YLBwQkCTPih-22" value="" style="line;strokeWidth=1;fillColor=none;align=left;verticalAlign=middle;spacingTop=-1;spacingLeft=3;spacingRight=3;rotatable=0;labelPosition=right;points=[];portConstraint=eastwest;" parent="v7rALU2g5YLBwQkCTPih-20" vertex="1">
          <mxGeometry y="52" width="180" height="8" as="geometry" />
        </mxCell>
        <mxCell id="v7rALU2g5YLBwQkCTPih-23" value="+ get_data(int, int): list&lt;string&gt;" style="text;strokeColor=none;fillColor=none;align=left;verticalAlign=top;spacingLeft=4;spacingRight=4;overflow=hidden;rotatable=0;points=[[0,0.5],[1,0.5]];portConstraint=eastwest;" parent="v7rALU2g5YLBwQkCTPih-20" vertex="1">
          <mxGeometry y="60" width="180" height="26" as="geometry" />
        </mxCell>
        <mxCell id="v7rALU2g5YLBwQkCTPih-24" value="+ add_data(string): void" style="text;strokeColor=none;fillColor=none;align=left;verticalAlign=top;spacingLeft=4;spacingRight=4;overflow=hidden;rotatable=0;points=[[0,0.5],[1,0.5]];portConstraint=eastwest;" parent="v7rALU2g5YLBwQkCTPih-20" vertex="1">
          <mxGeometry y="86" width="180" height="26" as="geometry" />
        </mxCell>
        <mxCell id="v7rALU2g5YLBwQkCTPih-25" value="+ sync_data(list): void" style="text;strokeColor=none;fillColor=none;align=left;verticalAlign=top;spacingLeft=4;spacingRight=4;overflow=hidden;rotatable=0;points=[[0,0.5],[1,0.5]];portConstraint=eastwest;" parent="v7rALU2g5YLBwQkCTPih-20" vertex="1">
          <mxGeometry y="112" width="180" height="26" as="geometry" />
        </mxCell>
        <mxCell id="v7rALU2g5YLBwQkCTPih-26" style="edgeStyle=orthogonalEdgeStyle;rounded=0;orthogonalLoop=1;jettySize=auto;html=1;entryX=0.5;entryY=0;entryDx=0;entryDy=0;" parent="1" source="v7rALU2g5YLBwQkCTPih-16" target="v7rALU2g5YLBwQkCTPih-1" edge="1">
          <mxGeometry relative="1" as="geometry" />
        </mxCell>
        <mxCell id="v7rALU2g5YLBwQkCTPih-27" style="edgeStyle=orthogonalEdgeStyle;rounded=0;orthogonalLoop=1;jettySize=auto;html=1;" parent="1" source="v7rALU2g5YLBwQkCTPih-4" target="v7rALU2g5YLBwQkCTPih-20" edge="1">
          <mxGeometry relative="1" as="geometry" />
        </mxCell>
        <mxCell id="40_08IFH8CefeGhNC2VH-31" value="static" style="text;html=1;align=center;verticalAlign=middle;resizable=0;points=[];autosize=1;strokeColor=none;fillColor=none;" vertex="1" parent="1">
          <mxGeometry x="670" y="60" width="40" height="20" as="geometry" />
        </mxCell>
      </root>
    </mxGraphModel>
  </diagram>
</mxfile>
